<svg width="224" height="224" viewBox="0 0 224 224" fill="none" xmlns="http://www.w3.org/2000/svg">
<path d="M197.631 103.413L197.958 106.508L201.07 106.545L212.069 106.674C214.274 106.699 215.831 107.437 216.824 108.454C217.817 109.471 218.519 111.045 218.493 113.249C218.467 115.454 217.729 117.011 216.712 118.004C215.695 118.997 214.121 119.699 211.917 119.673L200.918 119.544L197.805 119.507L197.406 122.594C195.277 139.02 189.314 154.268 178.693 166.525L176.584 168.959L178.834 171.263L186.74 179.356C189.342 182.02 189.298 185.804 186.634 188.406C183.97 191.008 180.186 190.964 177.584 188.3L169.679 180.206L167.531 178.008L165.074 179.853C152.421 189.352 136.93 195.902 120.587 197.63L117.492 197.958L117.455 201.07L117.326 212.069C117.3 214.274 116.562 215.83 115.545 216.824C114.528 217.817 112.955 218.518 110.75 218.493C108.546 218.467 106.989 217.729 105.996 216.712C105.002 215.695 104.301 214.121 104.327 211.917L104.456 200.917L104.493 197.805L101.406 197.405C84.9795 195.277 69.732 189.314 57.4745 178.693L55.0407 176.584L52.7369 178.834L44.6436 186.74C41.9797 189.342 38.196 189.298 35.5939 186.634C32.9919 183.97 33.0363 180.186 35.7001 177.584L43.7934 169.678L45.9918 167.531L44.1468 165.073C34.6479 152.42 28.098 136.93 26.3694 120.587L26.042 117.492L22.9299 117.455L11.9306 117.326C9.72614 117.3 8.16947 116.562 7.17606 115.545C6.18265 114.528 5.48147 112.955 5.50733 110.75C5.5332 108.546 6.27112 106.989 7.28811 105.996C8.30511 105.002 9.87867 104.301 12.0832 104.327L23.0824 104.456L26.3823 104.495L26.6148 101.203C27.7552 85.0504 34.5964 69.8352 45.307 57.4744L47.4159 55.0405L45.1656 52.7367L37.26 44.6434C34.6579 41.9795 34.7023 38.1959 37.3662 35.5938C40.0301 32.9917 43.8137 33.0361 46.4158 35.7L54.3214 43.7933L56.5718 46.0971L59.0545 44.0458C71.6632 33.6282 87.0347 27.1459 103.209 26.3848L106.506 26.2296L106.545 22.9297L106.674 11.9305C106.7 9.72598 107.438 8.16931 108.455 7.17591C109.472 6.1825 111.045 5.48131 113.25 5.50718C115.454 5.53304 117.011 6.27096 118.004 7.28796C118.998 8.30496 119.699 9.87851 119.673 12.083L119.544 23.0822L119.507 26.1944L122.594 26.5943C139.021 28.7225 154.268 34.6859 166.525 45.3069L168.959 47.4158L171.263 45.1654L179.356 37.2599C182.02 34.6578 185.804 34.7022 188.406 37.366C191.008 40.0299 190.964 43.8136 188.3 46.4157L180.207 54.3213L178.008 56.4686L179.853 58.9263C189.352 71.5793 195.902 87.0697 197.631 103.413ZM68.151 141.487C68.1065 145.283 69.3465 148.732 71.8118 151.256C74.2771 153.78 77.6966 155.1 81.4917 155.145C85.2868 155.189 88.7364 153.949 91.2602 151.484C93.784 149.019 95.1046 145.599 95.1492 141.804C95.1937 138.009 93.9537 134.56 91.4884 132.036C89.0231 129.512 85.6036 128.191 81.8085 128.147C78.0134 128.102 74.5638 129.342 72.04 131.807C69.5162 134.273 68.1955 137.692 68.151 141.487ZM68.679 96.4905C68.5625 106.423 77.0283 115.09 86.9607 115.206C96.893 115.323 105.56 106.857 105.676 96.9246C105.793 86.9923 97.3271 78.3254 87.3948 78.2088C77.4625 78.0923 68.7955 86.5582 68.679 96.4905ZM118.324 127.075C118.207 137.007 126.673 145.674 136.605 145.791C146.538 145.907 155.204 137.442 155.321 127.509C155.438 117.577 146.972 108.91 137.039 108.793C127.107 108.677 118.44 117.143 118.324 127.075ZM128.851 82.1955C128.806 85.9906 130.046 89.4402 132.512 91.964C134.977 94.4878 138.396 95.8084 142.192 95.853C145.987 95.8975 149.436 94.6575 151.96 92.1922C154.484 89.7269 155.804 86.3074 155.849 82.5123C155.894 78.7172 154.654 75.2676 152.188 72.7438C149.723 70.22 146.303 68.8994 142.508 68.8548C138.713 68.8103 135.264 70.0503 132.74 72.5156C130.216 74.9809 128.895 78.4004 128.851 82.1955Z" fill="#7D00A9" stroke="white" stroke-width="7"/>
</svg>
